<?xml version="1.0" encoding="UTF-8" standalone="no"?>
<!-- Generator: Adobe Illustrator 19.0.0, SVG Export Plug-In . SVG Version: 6.00 Build 0)  -->

<svg
   xmlns:dc="http://purl.org/dc/elements/1.1/"
   xmlns:cc="http://creativecommons.org/ns#"
   xmlns:rdf="http://www.w3.org/1999/02/22-rdf-syntax-ns#"
   xmlns:svg="http://www.w3.org/2000/svg"
   xmlns="http://www.w3.org/2000/svg"
   xmlns:sodipodi="http://sodipodi.sourceforge.net/DTD/sodipodi-0.dtd"
   xmlns:inkscape="http://www.inkscape.org/namespaces/inkscape"
   version="1.1"
   id="Capa_1"
   x="0px"
   y="0px"
   viewBox="0 0 512 512"
   style="enable-background:new 0 0 512 512;"
   xml:space="preserve"
   sodipodi:docname="bee.svg"
   inkscape:version="0.92.2 (5c3e80d, 2017-08-06)"><metadata
     id="metadata77"><rdf:RDF><cc:Work
         rdf:about=""><dc:format>image/svg+xml</dc:format><dc:type
           rdf:resource="http://purl.org/dc/dcmitype/StillImage" /></cc:Work></rdf:RDF></metadata><defs
     id="defs75" /><sodipodi:namedview
     pagecolor="#ffffff"
     bordercolor="#666666"
     borderopacity="1"
     objecttolerance="10"
     gridtolerance="10"
     guidetolerance="10"
     inkscape:pageopacity="0"
     inkscape:pageshadow="2"
     inkscape:window-width="1440"
     inkscape:window-height="847"
     id="namedview73"
     showgrid="false"
     inkscape:zoom="0.4609375"
     inkscape:cx="256"
     inkscape:cy="194.34124"
     inkscape:window-x="-8"
     inkscape:window-y="-8"
     inkscape:window-maximized="1"
     inkscape:current-layer="Capa_1" /><path
     style="fill:#333e40;stroke-width:0.75237966"
     d="m 71.130583,286.78912 c -3.147956,0.60416 -3.147956,5.11016 0,5.71357 l 46.331537,14.53898 v -34.79906 z"
     id="path2"
     inkscape:connector-curvature="0" /><ellipse
     transform="rotate(106.88748)"
     style="fill:#d9d9d9;stroke-width:0.75239766"
     cx="61.960964"
     cy="-291.38666"
     rx="47.415348"
     ry="43.88961"
     id="ellipse4" /><ellipse
     transform="rotate(-106.88748)"
     style="fill:#f0f0f0;stroke-width:0.75239766"
     cx="-201.35588"
     cy="123.24299"
     rx="54.171127"
     ry="50.143539"
     id="ellipse6" /><path
     style="fill:#ffce1c;stroke-width:0.75237966"
     d="M 214.2851,317.85262 V 249.9007 l 29.81154,-58.30717 -6.46219,-23.54346 c -21.69336,4.05909 -41.72998,11.17886 -59.2055,20.67991 l -30.78888,21.55944 -17.52819,54.95531 v 52.17 l 21.48119,49.53969 26.83437,23.60967 c 17.47552,9.50105 37.51215,16.62082 59.20551,20.67991 l 10.8463,-25.8766 z"
     id="path8"
     inkscape:connector-curvature="0" /><path
     style="fill:#faa330;stroke-width:0.75237966"
     d="m 246.49372,390.10438 c -2.98093,-0.43562 -5.93778,-0.91639 -8.86077,-1.46488 -21.69336,-4.05909 -41.72999,-11.17885 -59.20551,-20.6799 -15.3034,-8.32509 -28.64008,-18.48597 -39.42168,-30.03349 l 12.58731,29.0268 26.83437,23.60967 c 1.09246,0.59363 2.19394,1.17823 3.30596,1.75305 3.33605,1.72521 6.76013,3.36464 10.26622,4.91529 9.44086,4.17421 19.57014,7.70588 29.68739,10.40316 5.20196,1.38739 10.52203,2.5927 15.94518,3.60766 z"
     id="path10"
     inkscape:connector-curvature="0" /><g
     id="g16"
     transform="matrix(0.75237963,0,0,0.75237963,63.390854,63.391055)"><path
       style="fill:#3b484a"
       d="m 111.047,300.715 c 0,49.989 15.501,96.281 41.852,134.135 -55.866,-30.389 -92.081,-79.152 -92.081,-134.135 0,-54.972 36.216,-103.745 92.081,-134.125 -26.351,37.854 -41.852,84.146 -41.852,134.125 z"
       id="path12"
       inkscape:connector-curvature="0" /><path
       style="fill:#3b484a"
       d="m 481.303,377.929 c -24.231,36.899 -65.771,65.67 -118.101,79.856 -23.187,6.289 -48.492,9.715 -75.345,9.715 -19.419,0 -38.275,-1.789 -56.268,-5.163 -39.772,-41.752 -64.284,-98.763 -64.284,-161.62 0,-62.848 24.512,-119.86 64.284,-161.61 17.992,-3.376 36.849,-5.163 56.268,-5.163 61.2,0 114.344,17.781 152.72,46.704 11.312,8.529 21.348,18.012 29.917,28.3 z"
       id="path14"
       inkscape:connector-curvature="0" /></g><path
     style="fill:#333e40;stroke-width:0.75237966"
     d="m 336.65664,385.21542 c -17.44543,4.73172 -36.48439,7.30937 -56.68804,7.30937 -14.61046,0 -28.79733,-1.34601 -42.3349,-3.88454 -7.39589,-1.38437 -14.59391,-3.13215 -21.56922,-5.20044 6.26582,10.0089 13.49468,19.32712 21.56922,27.80343 1.6921,0.31751 3.39398,0.6162 5.10715,0.89609 31.0951,5.08232 63.45946,3.94021 93.91654,-4.32017 32.03633,-8.68848 62.80414,-25.92324 83.39,-52.43935 1.93437,-2.49188 3.75738,-5.04019 5.46679,-7.64267 l -1.32043,-20.64906 c -18.39944,26.82158 -49.09503,47.70764 -87.53711,58.12734 z"
     id="path18"
     inkscape:connector-curvature="0" /><path
     style="fill:#ffce1c;stroke-width:0.75237966"
     d="m 443.2267,289.64365 c 0.16026,20.59714 -6.39899,40.95954 -17.71327,58.09424 -44.02023,66.66535 -148.07734,62.56864 -184.72801,-12.27508 -6.95349,-14.19514 -10.7026,-29.65128 -10.7026,-45.81916 0,-22.42618 7.21758,-43.48303 20.1886,-61.70642 25.23707,-35.47169 76.37782,-40.70223 107.51881,-10.28653 0.4913,0.48378 0.98261,0.96756 1.46639,1.46639 0.4913,-0.49883 0.98261,-0.98261 1.46639,-1.46639 0.0978,-0.0978 0.19637,-0.18885 0.29493,-0.28741 16.09189,-15.5246 42.04749,-13.93783 56.36301,3.23523 16.15811,19.3813 25.64787,43.60492 25.84575,69.04513 z"
     id="path20"
     inkscape:connector-curvature="0" /><path
     style="fill:#faa330;stroke-width:0.75237966"
     d="m 443.16952,287.04192 c -0.088,-2.72437 -0.28741,-5.44572 -0.58836,-8.15429 -1.90127,16.46959 -7.93084,32.41101 -17.06773,46.24652 -18.23091,27.76205 -49.48476,49.40952 -88.85679,60.08202 -9.32349,2.52875 -19.10668,4.43528 -29.27584,5.66919 42.48462,11.73185 91.38779,-2.64612 118.13187,-43.14822 10.28428,-15.57577 16.61104,-33.83828 17.58161,-52.51234 0.13994,-2.67847 0.16327,-5.43143 0.0752,-8.18288 z"
     id="path22"
     inkscape:connector-curvature="0" /><path
     style="fill:#333e40;stroke-width:0.75237966"
     d="m 109.836,278.3414 c -0.12941,1.06612 -0.23775,2.13676 -0.33105,3.21116 -0.0323,0.37318 -0.0572,0.74711 -0.085,1.12104 -0.84116,11.22325 0.3634,22.54506 3.50986,33.34923 6.29591,21.61587 20.02533,40.35238 36.94184,54.94327 8.46577,7.3011 18.04958,13.88141 28.55732,19.59724 -7.39364,-10.62059 -13.65043,-22.12523 -18.5913,-34.32732 C 131.96198,335.97218 113.52718,308.71873 109.836,278.3414 Z"
     id="path24"
     inkscape:connector-curvature="0" /><circle
     style="fill:#ffce1c;stroke-width:0.75237966"
     cx="354.8063"
     cy="122.68008"
     r="13.307339"
     id="circle26" /><path
     style="fill:#faa330;stroke-width:0.75237966"
     d="m 367.55913,118.92946 c -1.46263,4.91605 -5.70906,8.75243 -11.12469,9.4213 -6.563,0.81031 -12.58505,-3.31273 -14.38399,-9.45967 -0.5071,1.70489 -0.68467,3.53769 -0.45369,5.41563 0.9006,7.29432 7.54261,12.47746 14.83693,11.57837 7.29432,-0.9006 12.47746,-7.54261 11.57837,-14.83768 -0.0903,-0.73131 -0.2528,-1.43403 -0.45293,-2.11795 z"
     id="path28"
     inkscape:connector-curvature="0" /><circle
     style="fill:#ffce1c;stroke-width:0.75237966"
     cx="401.11224"
     cy="132.15781"
     r="13.307339"
     id="circle30" /><path
     style="fill:#faa330;stroke-width:0.75237966"
     d="m 413.86358,128.41246 c -1.46263,4.91604 -5.70906,8.75243 -11.12469,9.42129 -6.563,0.81032 -12.58505,-3.31272 -14.38399,-9.45967 -0.5071,1.7049 -0.68466,3.53769 -0.45368,5.41563 0.90059,7.29432 7.5426,12.47747 14.83692,11.57837 7.29432,-0.9006 12.47747,-7.5426 11.57837,-14.83768 -0.0895,-0.73056 -0.2528,-1.43253 -0.45293,-2.11794 z"
     id="path32"
     inkscape:connector-curvature="0" /><path
     d="m 306.31618,281.76548 c -3.12087,0 -5.65112,2.53025 -5.65112,5.65112 v 9.64401 c 0,3.12087 2.53025,5.65112 5.65112,5.65112 3.12087,0 5.65112,-2.53025 5.65112,-5.65112 v -9.64401 c 0,-3.12162 -2.53025,-5.65112 -5.65112,-5.65112 z"
     id="path34"
     inkscape:connector-curvature="0"
     style="stroke-width:0.75237966" /><path
     d="m 412.89301,281.76548 c -3.12087,0 -5.65112,2.53025 -5.65112,5.65112 v 9.64401 c 0,3.12087 2.53025,5.65112 5.65112,5.65112 3.12087,0 5.65112,-2.53025 5.65112,-5.65112 v -9.64401 c 0,-3.12162 -2.53025,-5.65112 -5.65112,-5.65112 z"
     id="path36"
     inkscape:connector-curvature="0"
     style="stroke-width:0.75237966" /><path
     d="m 376.47633,292.13402 c -2.34968,-2.05399 -5.91972,-1.81398 -7.97372,0.5357 -2.15933,2.47081 -5.40208,3.88679 -8.89839,3.88679 -3.49631,0 -6.73831,-1.41673 -8.89764,-3.88679 -2.054,-2.34968 -5.62404,-2.58969 -7.97372,-0.5357 -2.34968,2.054 -2.58969,5.62329 -0.5357,7.97372 4.30512,4.92583 10.64994,7.75027 17.40706,7.75027 6.75712,0 13.10118,-2.82519 17.40781,-7.75027 2.05399,-2.34893 1.81398,-5.91972 -0.5357,-7.97372 z"
     id="path38"
     inkscape:connector-curvature="0"
     style="stroke-width:0.75237966" /><path
     d="m 421.98853,217.44304 c -6.8617,-8.46577 -14.77523,-16.0949 -23.44415,-22.63083 -3.81156,-2.87258 -7.79165,-5.58491 -11.91995,-8.13623 0.99163,-9.03382 3.50383,-22.94457 9.86445,-36.1857 1.56118,0.41757 3.1931,0.65006 4.87466,0.65006 11.22325,0 20.20967,-10.13606 18.83282,-21.28181 -1.1707,-9.48525 -9.25201,-16.63812 -18.79896,-16.63812 -11.22024,0 -20.20591,10.14884 -18.83206,21.28181 0.46422,3.76641 2.03142,7.15287 4.33371,9.88175 -6.39674,12.86118 -9.44613,26.28589 -10.89521,36.26319 -10.62812,-5.53751 -22.07783,-10.08941 -34.14675,-13.59324 1.46262,-7.60054 3.98385,-16.97519 8.33185,-26.04663 1.55968,0.41682 3.19084,0.6493 4.87091,0.6493 5.81363,0 11.38576,-2.71383 14.96257,-7.29733 3.1156,-3.99212 4.4887,-8.95933 3.86873,-13.98448 -1.16995,-9.48525 -9.25126,-16.63812 -18.7982,-16.63812 -11.224,0 -20.20892,10.13531 -18.83281,21.28181 0.46497,3.76942 2.03443,7.15814 4.34047,9.88853 -5.06276,10.19775 -8.00682,20.73332 -9.70268,29.2939 -7.48242,-1.73123 -15.16497,-3.07573 -23.00552,-4.01771 0.20766,-0.60792 0.41457,-1.2166 0.59965,-1.82904 4.0937,-13.48414 3.0682,-27.66274 -2.88538,-39.92427 -6.0258,-12.40899 -16.36124,-21.372846 -29.10129,-25.240077 -22.90544,-6.95274 -47.05532,5.019124 -58.24697,25.531247 -10.9238,-13.16739 -26.82835,-21.32394 -43.71175,-21.32394 -5.15681,0 -10.28127,0.761408 -15.23042,2.26391 -29.43535,8.93526 -45.58894,41.88196 -36.00814,73.44429 3.9515,13.01767 11.69574,24.08969 22.13426,31.88209 -8.42139,7.39664 -15.75859,15.46742 -21.76936,24.03552 -8.97739,12.79797 -15.03405,26.74032 -17.93221,41.08369 L 69.944833,281.3434 c -3.87927,0.92467 -6.553979,4.29157 -6.553979,8.32207 0,4.03125 2.675462,7.39815 6.554731,8.32207 l 35.793705,11.23227 c 2.89667,14.34487 8.95483,28.28797 17.93222,41.08595 12.44812,17.74563 30.54285,33.3891 52.32951,45.24134 18.38665,9.99687 38.86341,17.152 60.86224,21.26902 14.0838,2.6416 28.67846,3.98159 43.37695,3.98159 20.23374,0 39.80389,-2.52574 58.16722,-7.50574 40.05443,-10.85684 72.73931,-33.00162 92.04838,-62.35647 0.0151,-0.0226 0.0301,-0.0436 0.0534,-0.0782 27.66725,-41.91356 22.66694,-94.93526 -8.5207,-133.41421 z m -26.64477,-89.97332 c 1.25797,-1.61235 3.06895,-2.63859 5.09962,-2.88838 0.31751,-0.0391 0.63802,-0.0587 0.95402,-0.0587 3.84993,0 7.10999,2.88914 7.58248,6.72101 0.51689,4.19075 -2.47156,8.01961 -6.66157,8.53725 -0.3175,0.0391 -0.63877,0.0587 -0.95477,0.0587 -3.84992,0 -7.10923,-2.88839 -7.58172,-6.72101 -0.25055,-2.03143 0.30471,-4.03652 1.56194,-5.64887 z m -41.20558,-12.36987 c 4.13809,-0.54171 8.02789,2.53477 8.5365,6.65781 0.55601,4.50826 -3.07874,8.59593 -7.61559,8.59593 -3.84992,0 -7.10923,-2.88913 -7.58248,-6.721 -0.51387,-4.15615 2.61302,-8.00231 6.66157,-8.53274 z m 66.90461,229.52544 c -18.64397,27.97724 -50.57271,44.58527 -84.11529,44.58527 -38.41726,0 -73.8739,-21.65875 -90.79643,-56.21555 -16.15283,-32.98733 -12.16522,-72.00574 9.01577,-101.76386 22.72036,-31.92271 70.70789,-37.32706 98.95222,-9.53415 1.59805,1.57247 3.01177,3.07873 5.42842,3.08851 2.41589,0.009 4.07714,-1.78615 5.68498,-3.33755 6.52463,-6.29516 15.49224,-9.58306 24.5381,-9.0722 9.14969,0.51689 17.65309,4.77235 23.56228,11.85976 15.63896,18.76134 24.35152,42.01288 24.53435,65.47133 0.15122,19.49867 -6.02581,38.74529 -16.8044,54.91844 z M 225.59939,129.72536 c 6.23196,-16.15435 21.29008,-27.24593 37.3737,-27.24593 3.46772,0 6.91588,0.51313 10.24817,1.52433 9.6929,2.9418 17.58311,9.81855 22.21852,19.36249 4.70689,9.69215 5.5014,20.95151 2.23758,31.70452 -0.4093,1.34826 -0.88631,2.68675 -1.42802,4.00642 -0.65307,-0.0444 -6.72402,-0.35663 -9.10756,-0.43487 -7.8571,-0.23023 -15.71946,-0.0722 -23.56152,0.46948 -3.6859,0.25581 -11.21873,1.04807 -11.30977,1.05935 3.33605,-9.9615 9.43936,-24.07389 19.38807,-33.80366 2.23081,-2.1819 2.27069,-5.76022 0.0888,-7.99103 -2.1819,-2.2308 -5.76021,-2.26993 -7.99102,-0.0888 -6.03709,5.90468 -16.91048,19.26619 -23.89031,43.68994 -2.39708,0.41681 -4.7889,0.86749 -7.17168,1.35955 0.32503,-4.82953 0.064,-9.71624 -0.72379,-14.48933 -1.09998,-6.65706 -3.25781,-13.13805 -6.37115,-19.12248 z m -71.0758,67.85185 c -9.68915,-6.3862 -16.87061,-16.11672 -20.40303,-27.75453 -7.77058,-25.59972 5.00407,-52.22342 28.47606,-59.34771 20.66411,-6.27259 42.19571,5.02665 52.34004,23.31549 5.36297,9.66959 7.59979,21.1035 6.15296,32.07621 -0.008,0.067 -0.0158,0.13317 -0.0248,0.20013 -7.54412,1.98553 -14.98289,4.38186 -22.25916,7.19576 -4.16968,-12.95448 -12.10353,-31.80083 -25.7231,-45.12247 -2.23081,-2.1819 -5.80837,-2.14202 -7.99103,0.0888 -2.1819,2.23081 -2.14277,5.80913 0.0888,7.99103 12.28636,12.01625 19.45955,29.62796 23.16577,41.43279 -6.79022,3.08175 -13.39913,6.53893 -19.77178,10.41218 -2.79058,1.69662 -13.81444,9.66808 -14.05069,9.51234 z m -50.4937,99.26144 -22.859553,-7.17318 22.859553,-7.1762 c -0.0587,0.80655 -0.0933,1.6131 -0.13167,2.4204 -0.19261,3.96881 -0.15725,7.96394 0.13167,11.92898 z m 28.932,46.95 c -8.31906,-11.83117 -14.32079,-25.17688 -16.7096,-39.68427 -0.008,-0.0594 -0.008,-0.11887 -0.0173,-0.17831 -1.54765,-9.42882 -1.54765,-19.0984 0,-28.52647 0.01,-0.061 0.01,-0.12114 0.0181,-0.18133 3.57154,-26.79525 21.85362,-50.35601 42.54631,-66.66234 0.62899,-0.49582 2.57841,-1.98628 2.66042,-2.04797 -0.0436,0.0865 -1.45661,2.91321 -2.09689,4.25019 -11.70025,24.41472 -17.80055,51.69375 -17.80055,78.90431 0,28.70704 6.71198,57.32832 19.77329,82.90772 0.0444,0.0865 0.0843,0.17455 0.12866,0.26032 -10.8305,-8.15053 -20.68818,-17.9277 -28.5024,-29.04185 z m 49.62772,42.46957 c -0.51839,-0.75614 -1.03227,-1.51529 -1.53787,-2.27971 -4.72795,-7.14986 -8.91946,-14.65861 -12.51433,-22.44047 -10.38359,-22.47434 -15.67432,-47.12982 -15.67432,-71.87558 0,-31.4728 8.73211,-62.81919 25.21826,-89.64754 0.99464,-1.61762 4.31941,-6.66383 4.50299,-6.93243 0.13016,-0.0692 0.26032,-0.13919 0.39199,-0.20841 12.22391,-6.49077 25.20923,-11.53473 38.54441,-15.21838 0.27612,-0.076 0.553,-0.14897 0.82912,-0.22345 -2.83873,3.62421 -5.5315,7.36052 -8.08582,11.19089 -19.79511,29.6874 -30.37583,65.38254 -30.37583,101.04082 0,37.67616 11.73637,75.07921 33.63062,105.77254 0.54322,0.76066 4.01771,5.42767 4.84457,6.48325 -14.13044,-3.84089 -27.45057,-9.08272 -39.77379,-15.66153 z m 152.85871,16.12575 c -17.39878,4.71893 -35.97428,7.1115 -55.20887,7.1115 -13.36903,0 -26.63875,-1.16168 -39.47435,-3.45493 -12.59558,-13.50296 -22.97692,-29.0712 -30.55489,-45.91246 -10.50698,-23.34559 -15.56823,-48.99271 -14.9731,-74.57512 0.68316,-29.35861 9.04134,-58.6352 24.11978,-83.8482 6.09202,-10.18646 13.29907,-19.71761 21.39166,-28.39781 0.57783,-0.10308 1.15566,-0.2054 1.73499,-0.30472 18.60559,-3.16977 37.64832,-3.97557 56.45556,-2.38579 33.73444,2.84098 64.66552,13.36677 88.92073,30.4014 -10.45657,0 -20.39701,3.64227 -28.30226,10.31437 -13.88065,-12.42028 -31.67593,-19.22254 -50.4764,-19.22254 -25.02941,0 -48.63457,12.175 -63.14346,32.56675 -13.89269,19.51823 -21.23591,41.98955 -21.23591,64.98378 0,16.72239 3.92667,33.29656 11.27817,48.30428 18.80798,38.39468 58.25826,62.54682 100.94602,62.54682 1.07891,0 4.95367,-0.10383 5.36522,-0.12339 -2.25262,0.70573 -4.53309,1.37008 -6.84289,1.99606 z"
     id="path40"
     inkscape:connector-curvature="0"
     style="stroke-width:0.75237966" /><g
     id="g42" /><g
     id="g44" /><g
     id="g46" /><g
     id="g48" /><g
     id="g50" /><g
     id="g52" /><g
     id="g54" /><g
     id="g56" /><g
     id="g58" /><g
     id="g60" /><g
     id="g62" /><g
     id="g64" /><g
     id="g66" /><g
     id="g68" /><g
     id="g70" /></svg>