<?xml version="1.0" encoding="UTF-8" standalone="no"?>
<!-- Generator: Adobe Illustrator 19.0.0, SVG Export Plug-In . SVG Version: 6.00 Build 0)  -->

<svg
   xmlns:dc="http://purl.org/dc/elements/1.1/"
   xmlns:cc="http://creativecommons.org/ns#"
   xmlns:rdf="http://www.w3.org/1999/02/22-rdf-syntax-ns#"
   xmlns:svg="http://www.w3.org/2000/svg"
   xmlns="http://www.w3.org/2000/svg"
   xmlns:sodipodi="http://sodipodi.sourceforge.net/DTD/sodipodi-0.dtd"
   xmlns:inkscape="http://www.inkscape.org/namespaces/inkscape"
   version="1.1"
   id="Layer_1"
   x="0px"
   y="0px"
   viewBox="0 0 511.999 511.999"
   style="enable-background:new 0 0 511.999 511.999;"
   xml:space="preserve"
   sodipodi:docname="flower.svg"
   inkscape:version="0.92.2 (5c3e80d, 2017-08-06)"><metadata
     id="metadata59"><rdf:RDF><cc:Work
         rdf:about=""><dc:format>image/svg+xml</dc:format><dc:type
           rdf:resource="http://purl.org/dc/dcmitype/StillImage" /></cc:Work></rdf:RDF></metadata><defs
     id="defs57" /><sodipodi:namedview
     pagecolor="#ffffff"
     bordercolor="#666666"
     borderopacity="1"
     objecttolerance="10"
     gridtolerance="10"
     guidetolerance="10"
     inkscape:pageopacity="0"
     inkscape:pageshadow="2"
     inkscape:window-width="1440"
     inkscape:window-height="877"
     id="namedview55"
     showgrid="false"
     inkscape:zoom="0.46093841"
     inkscape:cx="255.9995"
     inkscape:cy="255.9995"
     inkscape:window-x="1432"
     inkscape:window-y="-8"
     inkscape:window-maximized="1"
     inkscape:current-layer="Layer_1" /><path
     style="fill:#ff728b;stroke-width:0.70339024"
     d="M 213.3786,329.76154 C 131.54477,471.50242 7.1234695,255.99911 170.79113,255.99911 c -163.6676605,0 -39.24707,-215.503303 42.58747,-73.76243 -81.83383,-141.740169 167.00736,-141.740169 85.17353,0 81.83383,-141.740873 206.25512,73.76243 42.58746,73.76243 163.66766,0 39.24637,215.50331 -42.58746,73.76243 81.83383,141.74088 -167.00736,141.74088 -85.17353,0 z"
     id="path2"
     inkscape:connector-curvature="0" /><path
     style="fill:#ff3f62;stroke-width:0.70339024"
     d="m 341.13959,255.89571 -82.99935,-1.11628 0.0415,-0.0689 -0.0668,0.001 40.43791,-72.47452 c 81.83383,-141.740176 -167.00736,-141.740176 -85.17353,0 l 40.44424,72.48507 -0.0781,-7.1e-4 0.0415,0.0689 -82.99372,1.49259 C 7.1269865,256.8263 132.26152,471.9146 213.62408,329.90433 l 42.30963,-71.39904 0.0324,0.0584 0.038,-0.0682 42.63881,71.21545 c 82.00476,141.6403 206.16369,-74.01353 42.49673,-73.81518 z"
     id="path4"
     inkscape:connector-curvature="0" /><g
     id="g18"
     transform="matrix(0.70339027,0,0,0.70339027,75.931919,75.931906)"><path
       style="fill:#ff0c38"
       d="m 255.952,414.824 c -4.328,0 -7.837,3.509 -7.837,7.837 v 32.914 c 0,4.328 3.509,7.837 7.837,7.837 4.328,0 7.837,-3.509 7.837,-7.837 V 422.66 c -10e-4,-4.328 -3.509,-7.836 -7.837,-7.836 z"
       id="path6"
       inkscape:connector-curvature="0" /><path
       style="fill:#ff0c38"
       d="m 131.527,162.764 20.179,16.748 c 1.463,1.215 3.237,1.807 5.001,1.807 2.251,0 4.485,-0.964 6.034,-2.832 2.765,-3.331 2.306,-8.271 -1.025,-11.035 l -20.179,-16.748 c -3.331,-2.765 -8.271,-2.306 -11.035,1.025 -2.764,3.33 -2.305,8.271 1.025,11.035 z"
       id="path8"
       inkscape:connector-curvature="0" /><path
       style="fill:#ff0c38"
       d="M 119.277,321.194 90.309,336.88 c -3.807,2.061 -5.22,6.817 -3.16,10.623 1.419,2.62 4.115,4.106 6.898,4.106 1.26,0 2.538,-0.305 3.724,-0.947 l 28.968,-15.686 c 3.806,-2.061 5.22,-6.817 3.16,-10.623 -2.06,-3.805 -6.816,-5.221 -10.622,-3.159 z"
       id="path10"
       inkscape:connector-curvature="0" /><path
       style="fill:#ff0c38"
       d="m 397.051,371.146 -20.883,-18.62 c -3.23,-2.88 -8.185,-2.597 -11.064,0.634 -2.88,3.231 -2.597,8.185 0.634,11.064 l 20.883,18.62 c 1.494,1.332 3.356,1.987 5.213,1.987 2.156,0 4.304,-0.885 5.852,-2.622 2.879,-3.228 2.596,-8.182 -0.635,-11.063 z"
       id="path12"
       inkscape:connector-curvature="0" /><path
       style="fill:#ff0c38"
       d="m 394.453,296.677 -120.48,-42.674 122.047,-77.06 c 3.659,-2.31 4.753,-7.15 2.443,-10.811 -2.31,-3.66 -7.151,-4.753 -10.811,-2.443 L 263.97,241.782 V 124.865 c 0,-4.328 -3.509,-7.837 -7.837,-7.837 -4.328,0 -7.837,3.509 -7.837,7.837 v 114.447 l -66.245,-54.981 c -3.331,-2.765 -8.272,-2.306 -11.035,1.025 -2.765,3.331 -2.305,8.271 1.025,11.035 l 44.864,37.236 -106.29,-38.07 c -4.071,-1.458 -8.56,0.66 -10.02,4.735 -1.46,4.074 0.66,8.561 4.735,10.02 l 131.645,47.151 -83.995,45.482 c -3.807,2.061 -5.22,6.817 -3.16,10.623 1.419,2.62 4.115,4.106 6.898,4.106 1.26,0 2.539,-0.305 3.724,-0.947 l 87.628,-47.45 0.043,120.473 c 0.001,4.327 3.51,7.834 7.837,7.834 h 0.002 c 4.329,-10e-4 7.836,-3.511 7.835,-7.839 l -0.042,-116.456 81.852,72.981 c 1.494,1.332 3.356,1.987 5.213,1.987 2.157,0 4.304,-0.885 5.853,-2.622 2.88,-3.231 2.597,-8.185 -0.634,-11.064 l -64.889,-57.857 98.08,34.74 c 0.865,0.306 1.748,0.451 2.616,0.451 3.226,0 6.249,-2.007 7.387,-5.222 1.446,-4.081 -0.69,-8.561 -4.77,-10.006 z"
       id="path14"
       inkscape:connector-curvature="0" /><path
       style="fill:#ff0c38"
       d="m 256.133,96.13 c 4.328,0 7.837,-3.509 7.837,-7.837 V 55.196 c 0,-4.328 -3.509,-7.837 -7.837,-7.837 -4.328,0 -7.837,3.509 -7.837,7.837 v 33.097 c 0.001,4.328 3.509,7.837 7.837,7.837 z"
       id="path16"
       inkscape:connector-curvature="0" /></g><circle
     style="fill:#ffeb99;stroke-width:0.70339024"
     cx="256.09549"
     cy="255.9991"
     r="42.996136"
     id="circle20" /><path
     style="fill:#ffda44;stroke-width:0.70339024"
     d="m 234.8932,255.99911 c 0,-19.9805 13.63029,-36.77324 32.0978,-41.5985 -3.48107,-0.91019 -7.13237,-1.39693 -10.89832,-1.39693 -23.74646,0 -42.99614,19.24968 -42.99614,42.99613 0,23.74646 19.24968,42.99614 42.99614,42.99614 3.76595,0 7.41725,-0.48745 10.89832,-1.39693 -18.46751,-4.82596 -32.0978,-21.6194 -32.0978,-41.59991 z"
     id="path22"
     inkscape:connector-curvature="0" /><g
     id="g24" /><g
     id="g26" /><g
     id="g28" /><g
     id="g30" /><g
     id="g32" /><g
     id="g34" /><g
     id="g36" /><g
     id="g38" /><g
     id="g40" /><g
     id="g42" /><g
     id="g44" /><g
     id="g46" /><g
     id="g48" /><g
     id="g50" /><g
     id="g52" /></svg>